# xmcd CD database file
#
# Track frame offsets:
#	150
#	43365
#	69792
#	92485
#	128443
#	161907
#	190970
#	210321
#	241072
#	270174
#
# Disc length: 3785 seconds
#
# Revision: 1
# Processed by: cddbd v1.5.2PL0 Copyright (c) Steve Scherf et al.
# Submitted via: CDex 1.50Beta6
#
DISCID=7a0ec70a
DTITLE=sheer sofer - elements
DYEAR=2001
DGENRE=New Age
TTITLE0=לאדאק
TTITLE1=יסוד המים
TTITLE2=יסוד העץ
TTITLE3=יסודות (אש)
TTITLE4=אדמה
TTITLE5=הלל
TTITLE6=יסוד המתכת
TTITLE7=מנצ'וריה
TTITLE8=שמאן
TTITLE9=סודות
EXTD=YEAR: 2001
EXTT0=
EXTT1=
EXTT2=
EXTT3=
EXTT4=
EXTT5=
EXTT6=
EXTT7=
EXTT8=
EXTT9=
PLAYORDER=
